<?xml version="1.0" encoding="utf-8"?>
<!-- Generator: Adobe Illustrator 22.0.0, SVG Export Plug-In . SVG Version: 6.00 Build 0)  -->
<svg version="1.1" id="Layer_1" xmlns="http://www.w3.org/2000/svg" xmlns:xlink="http://www.w3.org/1999/xlink" x="0px" y="0px"
	 width="300px" height="300px" viewBox="0 0 300 300" style="enable-background:new 0 0 300 300;" xml:space="preserve">
<style type="text/css">
	.st0{fill:#FFFFFF;}
	.st1{fill:#00ADEE;}
</style>
<g>
	<rect y="0" width="300" height="300"/>
	<g>
		<g>
			<path class="st0" d="M175.1,88.8l47.6,47.5h-20.8c-0.2,0.2-0.7,0.2-1,0.2c-0.2,0-0.4-0.1-0.6-0.2l-41.1-40.8v40.8h-15.8V41.3
				h15.8v41l41.1-41h22.3L175.1,88.8z"/>
			<path class="st1" d="M225.4,112.8c-7.7,7.7-15.6,15.6-23.4,23.4c-0.4,0.2-0.6,0.3-1,0.4h21c0.1,0,1.4,0,1.9-0.4
				c0.6-0.2,0.9-0.6,1.1-0.7l22.9-22.7H225.4z"/>
			<path class="st0" d="M79.3,217.9c4.4,0,8.5-0.8,12.3-2.5c3.9-1.7,7.2-3.9,10.1-6.9c2.9-2.9,5.1-6.3,6.8-10.2
				c1.6-3.8,2.5-7.9,2.5-12.2c0-4.3-0.8-8.3-2.5-12.2c-1.6-3.9-3.9-7.2-6.9-10.1c-2.9-2.9-6.3-5.2-10.1-6.9
				c-3.8-1.6-7.9-2.5-12.2-2.5H63.4v63.3H79.3L79.3,217.9z M47.7,138.7h31.6c6.5,0,12.6,1.2,18.3,3.8c5.8,2.5,10.8,5.9,15.1,10.3
				c4.3,4.3,7.8,9.4,10.3,15.1c2.5,5.8,3.8,11.9,3.8,18.3c0,6.5-1.2,12.6-3.8,18.4c-2.5,5.8-5.9,10.8-10.2,15.1
				c-4.3,4.3-9.3,7.7-15.1,10.3c-5.8,2.5-11.9,3.8-18.4,3.8H47.7V138.7z"/>
			<path class="st0" d="M212.6,138.7c6.6,0,12.7,1.2,18.5,3.7c5.8,2.5,10.8,5.9,15.2,10.2l-11.4,11.2c-6.1-6.2-13.5-9.3-22.3-9.3
				c-8.7,0-16.1,3.1-22.5,9.3c-6.1,6.2-9.2,13.7-9.2,22.3c0,8.7,3.1,16.2,9.2,22.5c6.3,6.1,13.8,9.2,22.5,9.2c4.8,0,9.1-1,13.2-2.8
				c4.1-1.9,7.6-4.5,10.6-7.9v-13h-23.8v-15.8h39.7v34c-2.2,3.2-4.7,6.1-7.6,8.8c-2.9,2.7-6,4.9-9.4,6.8c-3.4,1.9-7,3.3-10.8,4.3
				c-3.8,1-7.8,1.5-11.9,1.5c-13.1,0-24.3-4.7-33.5-14c-9.3-9.2-14-20.4-14-33.6c0-13,4.7-24.2,13.9-33.5
				C188.3,143.4,199.5,138.7,212.6,138.7z"/>
			<path class="st1" d="M167.6,217.9h-43.7l-8.1,15.9H98.2l47.5-95.1l47.5,95.1h-17.7L167.6,217.9L167.6,217.9z M131.7,202.2h28
				l-14-28L131.7,202.2z"/>
			<path class="st1" d="M117.9,120.4H74.1l-8.1,15.9H48.4l47.5-95.1l47.5,95.1h-17.7L117.9,120.4L117.9,120.4z M82,104.7h28l-14-28
				L82,104.7z"/>
		</g>
		<g>
			<g>
				<path class="st0" d="M49.8,257h-2l3-14.1h2l3,14.1h-2l-0.8-3.5h-2.5L49.8,257z M51.8,245.9l-1,6h2L51.8,245.9z"/>
				<path class="st0" d="M63.9,246.7c0,0.8-0.1,1.5-0.4,2.1c-0.3,0.6-0.7,1-1.3,1.2l2.3,7h-2l-2-6.5h-1.5v6.5h-2v-14.1h2.5
					c0.7,0,1.4,0.1,1.9,0.2c0.6,0.1,1,0.3,1.4,0.6c0.4,0.3,0.7,0.7,0.9,1.2C63.8,245.4,63.9,246,63.9,246.7z M61.9,246.7
					c0-0.4-0.1-0.8-0.2-1c-0.1-0.3-0.3-0.5-0.5-0.7c-0.2-0.2-0.5-0.3-0.8-0.4c-0.3-0.1-0.7-0.1-1.1-0.1h-0.5v4.5h0.5
					c0.4,0,0.8,0,1.1-0.1c0.3-0.1,0.6-0.2,0.8-0.4c0.2-0.2,0.4-0.4,0.5-0.7C61.8,247.4,61.9,247.1,61.9,246.7z"/>
				<path class="st0" d="M72.3,254.3c-0.1,0.6-0.3,1.1-0.6,1.5c-0.3,0.4-0.7,0.7-1.2,0.9c-0.5,0.2-1.1,0.3-1.8,0.3
					c-0.7,0-1.4-0.1-1.9-0.4c-0.5-0.3-0.9-0.6-1.2-1.1c-0.3-0.5-0.5-1-0.6-1.6c-0.1-0.6-0.2-1.3-0.2-2.1v-4c0-0.8,0.1-1.4,0.2-2.1
					c0.1-0.6,0.3-1.2,0.6-1.6c0.3-0.5,0.7-0.8,1.2-1.1c0.5-0.3,1.1-0.4,1.9-0.4c0.7,0,1.3,0.1,1.8,0.3c0.5,0.2,0.9,0.5,1.1,0.9
					c0.3,0.4,0.5,0.9,0.6,1.5c0.1,0.6,0.2,1.2,0.2,1.9h-2c0-0.4,0-0.8,0-1.2c0-0.4-0.1-0.7-0.2-1c-0.1-0.3-0.3-0.5-0.5-0.6
					c-0.2-0.2-0.6-0.2-1-0.2c-0.4,0-0.7,0.1-1,0.2c-0.2,0.2-0.4,0.4-0.6,0.6c-0.1,0.3-0.2,0.6-0.2,1c0,0.4-0.1,0.8-0.1,1.2v5
					c0,0.4,0,0.8,0.1,1.1c0.1,0.4,0.2,0.7,0.3,1c0.1,0.3,0.3,0.5,0.6,0.7c0.2,0.2,0.6,0.3,0.9,0.3c0.4,0,0.7-0.1,0.9-0.3
					c0.2-0.2,0.4-0.4,0.5-0.7c0.1-0.3,0.2-0.6,0.2-1c0-0.4,0.1-0.7,0.1-1.1v-0.5h2v0.5C72.5,253.1,72.4,253.8,72.3,254.3z"/>
				<path class="st0" d="M75.8,250.4v6.5h-2v-14.1h2v6h3.5v-6h2V257h-2v-6.5H75.8z"/>
				<path class="st0" d="M85.5,242.9V257h-2v-14.1H85.5z"/>
				<path class="st0" d="M93.6,244.7h-2.5V257h-2v-12.3h-2.5v-1.8h7V244.7z"/>
				<path class="st0" d="M96.6,250.4v5h3.5v1.5h-5.5v-14.1h5.5v1.5h-3.5v4.5h2.5v1.5H96.6z"/>
				<path class="st0" d="M108.5,254.3c-0.1,0.6-0.3,1.1-0.6,1.5c-0.3,0.4-0.7,0.7-1.1,0.9c-0.5,0.2-1.1,0.3-1.8,0.3
					c-0.8,0-1.4-0.1-1.9-0.4c-0.5-0.3-0.9-0.6-1.2-1.1c-0.3-0.5-0.5-1-0.6-1.6c-0.1-0.6-0.2-1.3-0.2-2.1v-4c0-0.8,0.1-1.4,0.2-2.1
					c0.1-0.6,0.3-1.2,0.6-1.6c0.3-0.5,0.7-0.8,1.2-1.1c0.5-0.3,1.1-0.4,1.9-0.4c0.7,0,1.3,0.1,1.8,0.3c0.5,0.2,0.9,0.5,1.2,0.9
					c0.3,0.4,0.5,0.9,0.6,1.5c0.1,0.6,0.2,1.2,0.2,1.9h-2c0-0.4,0-0.8,0-1.2c0-0.4-0.1-0.7-0.2-1c-0.1-0.3-0.3-0.5-0.5-0.6
					c-0.2-0.2-0.6-0.2-1-0.2c-0.4,0-0.8,0.1-1,0.2c-0.2,0.2-0.4,0.4-0.6,0.6c-0.1,0.3-0.2,0.6-0.2,1c0,0.4-0.1,0.8-0.1,1.2v5
					c0,0.4,0,0.8,0.1,1.1c0,0.4,0.1,0.7,0.3,1c0.1,0.3,0.3,0.5,0.6,0.7c0.2,0.2,0.6,0.3,0.9,0.3c0.4,0,0.7-0.1,0.9-0.3
					c0.2-0.2,0.4-0.4,0.5-0.7c0.1-0.3,0.2-0.6,0.2-1c0-0.4,0.1-0.7,0.1-1.1v-0.5h2v0.5C108.7,253.1,108.6,253.8,108.5,254.3z"/>
				<path class="st0" d="M116,244.7h-2.5V257h-2v-12.3H109v-1.8h7V244.7z"/>
				<path class="st0" d="M124.8,254c-0.1,0.6-0.3,1.2-0.7,1.6c-0.3,0.5-0.7,0.8-1.2,1c-0.5,0.2-1.2,0.4-1.9,0.4
					c-0.8,0-1.4-0.1-1.9-0.4s-0.9-0.6-1.2-1c-0.3-0.5-0.5-1-0.6-1.6c-0.1-0.6-0.2-1.3-0.2-2.1v-9h2v9c0,0.5,0,0.9,0.1,1.3
					c0,0.4,0.1,0.8,0.3,1.1c0.1,0.3,0.3,0.6,0.6,0.8c0.3,0.2,0.6,0.3,1.1,0.3c0.5,0,0.8-0.1,1.1-0.3c0.3-0.2,0.5-0.4,0.6-0.8
					c0.1-0.3,0.2-0.7,0.3-1.1c0-0.4,0.1-0.9,0.1-1.3v-9h2v9C124.9,252.7,124.9,253.4,124.8,254z"/>
				<path class="st0" d="M133.9,246.7c0,0.8-0.1,1.5-0.4,2.1c-0.3,0.6-0.7,1-1.3,1.2l2.3,7h-2l-2-6.5h-1.5v6.5h-2v-14.1h2.5
					c0.7,0,1.4,0.1,1.9,0.2c0.6,0.1,1,0.3,1.4,0.6c0.4,0.3,0.7,0.7,0.9,1.2C133.8,245.4,133.9,246,133.9,246.7z M131.9,246.7
					c0-0.4-0.1-0.8-0.2-1c-0.1-0.3-0.3-0.5-0.5-0.7c-0.2-0.2-0.5-0.3-0.8-0.4c-0.3-0.1-0.7-0.1-1.1-0.1h-0.5v4.5h0.5
					c0.4,0,0.8,0,1.1-0.1c0.3-0.1,0.6-0.2,0.8-0.4c0.2-0.2,0.4-0.4,0.5-0.7C131.8,247.4,131.9,247.1,131.9,246.7z"/>
				<path class="st0" d="M137.6,250.4v5h3.5v1.5h-5.5v-14.1h5.5v1.5h-3.5v4.5h2.5v1.5H137.6z"/>
			</g>
			<g>
				<path class="st0" d="M162.4,254.3c-0.1,0.6-0.3,1.1-0.6,1.5c-0.3,0.4-0.7,0.7-1.2,0.9c-0.5,0.2-1.1,0.3-1.8,0.3
					c-0.8,0-1.4-0.1-1.9-0.4c-0.5-0.3-0.9-0.6-1.2-1.1c-0.3-0.5-0.5-1-0.6-1.6c-0.1-0.6-0.2-1.3-0.2-2.1v-4c0-0.8,0.1-1.4,0.2-2.1
					c0.1-0.6,0.3-1.2,0.6-1.6c0.3-0.5,0.7-0.8,1.2-1.1c0.5-0.3,1.1-0.4,1.9-0.4c0.7,0,1.3,0.1,1.8,0.3c0.5,0.2,0.9,0.5,1.2,0.9
					c0.3,0.4,0.5,0.9,0.6,1.5c0.1,0.6,0.2,1.2,0.2,1.9h-2c0-0.4,0-0.8,0-1.2c0-0.4-0.1-0.7-0.2-1c-0.1-0.3-0.3-0.5-0.5-0.6
					c-0.2-0.2-0.6-0.2-1-0.2c-0.4,0-0.8,0.1-1,0.2c-0.2,0.2-0.4,0.4-0.6,0.6c-0.1,0.3-0.2,0.6-0.2,1c0,0.4,0,0.8,0,1.2v5
					c0,0.4,0,0.8,0.1,1.1c0,0.4,0.1,0.7,0.3,1c0.1,0.3,0.3,0.5,0.6,0.7c0.2,0.2,0.6,0.3,0.9,0.3c0.4,0,0.7-0.1,0.9-0.3
					c0.2-0.2,0.4-0.4,0.5-0.7c0.1-0.3,0.2-0.6,0.2-1c0-0.4,0-0.7,0-1.1v-0.5h2v0.5C162.6,253.1,162.5,253.8,162.4,254.3z"/>
				<path class="st0" d="M167.5,242.7c0.7,0,1.3,0.1,1.8,0.3c0.5,0.2,0.9,0.5,1.2,0.9c0.3,0.4,0.5,0.9,0.7,1.4
					c0.1,0.6,0.2,1.2,0.2,1.9v5.1c0,0.7-0.1,1.3-0.2,1.9c-0.1,0.6-0.4,1.1-0.7,1.5c-0.3,0.4-0.7,0.7-1.2,0.9
					c-0.5,0.2-1.1,0.3-1.8,0.3c-0.7,0-1.3-0.1-1.8-0.3c-0.5-0.2-0.9-0.5-1.2-0.9c-0.3-0.4-0.5-0.9-0.7-1.5c-0.1-0.6-0.2-1.2-0.2-1.9
					v-5.1c0-0.7,0.1-1.4,0.2-1.9c0.1-0.6,0.4-1,0.7-1.4c0.3-0.4,0.7-0.7,1.2-0.9C166.2,242.8,166.8,242.7,167.5,242.7z M167.5,244.4
					c-0.4,0-0.7,0.1-0.9,0.2c-0.2,0.1-0.4,0.3-0.6,0.5c-0.1,0.2-0.2,0.5-0.3,0.8c-0.1,0.3-0.1,0.6-0.1,1v6.1c0,0.4,0,0.7,0.1,1
					c0.1,0.3,0.2,0.6,0.3,0.8c0.1,0.2,0.3,0.4,0.6,0.5c0.2,0.1,0.6,0.2,0.9,0.2c0.4,0,0.7-0.1,0.9-0.2c0.2-0.1,0.4-0.3,0.6-0.5
					c0.1-0.2,0.2-0.5,0.3-0.8c0.1-0.3,0.1-0.7,0.1-1v-6.1c0-0.4,0-0.7-0.1-1c-0.1-0.3-0.1-0.6-0.3-0.8c-0.1-0.2-0.3-0.4-0.6-0.5
					C168.2,244.4,167.9,244.4,167.5,244.4z"/>
				<path class="st0" d="M175.2,247.6v9.4h-2v-14.1h1.5l3.5,8.7v-8.7h2V257h-1.4L175.2,247.6z"/>
				<path class="st0" d="M187.2,245.9c-0.1-0.3-0.2-0.6-0.4-0.8c-0.2-0.2-0.4-0.4-0.6-0.5c-0.2-0.1-0.5-0.2-0.9-0.2
					c-0.5,0-0.9,0.1-1.1,0.4c-0.3,0.3-0.4,0.6-0.4,1.1c0,0.2,0,0.4,0.1,0.6c0.1,0.2,0.1,0.4,0.2,0.5c0.1,0.2,0.2,0.3,0.3,0.5
					c0.1,0.1,0.3,0.3,0.4,0.4l2.5,2c0.3,0.2,0.5,0.4,0.7,0.7c0.2,0.3,0.5,0.6,0.6,0.9c0.2,0.3,0.3,0.7,0.5,1.1
					c0.1,0.4,0.2,0.8,0.2,1.3c0,0.5-0.1,1-0.2,1.4c-0.2,0.4-0.4,0.8-0.7,1c-0.3,0.3-0.7,0.5-1.1,0.6c-0.4,0.1-0.9,0.2-1.4,0.2
					c-0.7,0-1.2-0.1-1.7-0.3c-0.5-0.2-0.9-0.5-1.2-0.9c-0.3-0.4-0.6-0.8-0.8-1.3c-0.2-0.5-0.3-1.1-0.3-1.7l2-0.5
					c0,0.4,0.1,0.7,0.1,1.1c0.1,0.4,0.2,0.7,0.3,1c0.1,0.3,0.3,0.5,0.6,0.7c0.3,0.2,0.6,0.3,0.9,0.3c1,0,1.5-0.5,1.5-1.5
					c0-0.3,0-0.6-0.1-0.8c-0.1-0.2-0.2-0.5-0.3-0.7c-0.1-0.2-0.3-0.4-0.5-0.5c-0.2-0.2-0.4-0.3-0.5-0.5l-2.5-2
					c-0.2-0.2-0.4-0.4-0.6-0.6c-0.2-0.2-0.3-0.5-0.5-0.7c-0.1-0.3-0.2-0.6-0.3-0.9c-0.1-0.3-0.1-0.7-0.1-1c0-0.5,0.1-1,0.3-1.4
					c0.2-0.4,0.4-0.8,0.7-1.1c0.3-0.3,0.7-0.5,1.1-0.7c0.4-0.2,0.9-0.2,1.4-0.2c0.6,0,1.2,0.1,1.7,0.3c0.5,0.2,0.9,0.4,1.2,0.7
					c0.3,0.3,0.6,0.7,0.8,1.2c0.2,0.5,0.3,1,0.4,1.5l-2,0.5C187.4,246.6,187.3,246.2,187.2,245.9z"/>
				<path class="st0" d="M196.9,244.7h-2.5V257h-2v-12.3h-2.5v-1.8h7V244.7z"/>
				<path class="st0" d="M204.9,246.7c0,0.8-0.1,1.5-0.4,2.1c-0.3,0.6-0.7,1-1.3,1.2l2.3,7h-2l-2-6.5h-1.5v6.5h-2v-14.1h2.5
					c0.7,0,1.4,0.1,1.9,0.2c0.6,0.1,1,0.3,1.4,0.6c0.4,0.3,0.7,0.7,0.9,1.2C204.8,245.4,204.9,246,204.9,246.7z M202.9,246.7
					c0-0.4-0.1-0.8-0.2-1c-0.1-0.3-0.3-0.5-0.5-0.7c-0.2-0.2-0.5-0.3-0.8-0.4c-0.3-0.1-0.7-0.1-1.1-0.1h-0.5v4.5h0.5
					c0.4,0,0.8,0,1.1-0.1c0.3-0.1,0.6-0.2,0.8-0.4c0.2-0.2,0.4-0.4,0.5-0.7C202.8,247.4,202.9,247.1,202.9,246.7z"/>
				<path class="st0" d="M214,254c-0.1,0.6-0.3,1.2-0.7,1.6c-0.3,0.5-0.7,0.8-1.2,1c-0.5,0.2-1.2,0.4-1.9,0.4
					c-0.8,0-1.4-0.1-1.9-0.4c-0.5-0.2-0.9-0.6-1.2-1c-0.3-0.5-0.5-1-0.7-1.6c-0.1-0.6-0.2-1.3-0.2-2.1v-9h2v9c0,0.5,0,0.9,0.1,1.3
					c0,0.4,0.1,0.8,0.3,1.1c0.1,0.3,0.3,0.6,0.6,0.8c0.3,0.2,0.6,0.3,1.1,0.3c0.5,0,0.8-0.1,1.1-0.3c0.3-0.2,0.5-0.4,0.6-0.8
					c0.1-0.3,0.2-0.7,0.2-1.1c0-0.4,0.1-0.9,0.1-1.3v-9h2v9C214.2,252.7,214.1,253.4,214,254z"/>
				<path class="st0" d="M223.3,254.3c-0.1,0.6-0.3,1.1-0.6,1.5c-0.3,0.4-0.7,0.7-1.2,0.9c-0.5,0.2-1.1,0.3-1.8,0.3
					c-0.8,0-1.4-0.1-1.9-0.4c-0.5-0.3-0.9-0.6-1.2-1.1c-0.3-0.5-0.5-1-0.6-1.6c-0.1-0.6-0.2-1.3-0.2-2.1v-4c0-0.8,0.1-1.4,0.2-2.1
					c0.1-0.6,0.3-1.2,0.6-1.6c0.3-0.5,0.7-0.8,1.2-1.1c0.5-0.3,1.1-0.4,1.9-0.4c0.7,0,1.3,0.1,1.8,0.3c0.5,0.2,0.9,0.5,1.1,0.9
					c0.3,0.4,0.5,0.9,0.6,1.5c0.1,0.6,0.2,1.2,0.2,1.9h-2c0-0.4,0-0.8,0-1.2c0-0.4-0.1-0.7-0.2-1c-0.1-0.3-0.3-0.5-0.5-0.6
					c-0.2-0.2-0.6-0.2-1-0.2c-0.4,0-0.7,0.1-1,0.2c-0.2,0.2-0.4,0.4-0.6,0.6c-0.1,0.3-0.2,0.6-0.2,1c0,0.4-0.1,0.8-0.1,1.2v5
					c0,0.4,0,0.8,0.1,1.1c0,0.4,0.1,0.7,0.3,1c0.1,0.3,0.3,0.5,0.6,0.7c0.2,0.2,0.5,0.3,0.9,0.3c0.4,0,0.7-0.1,0.9-0.3
					c0.2-0.2,0.4-0.4,0.5-0.7c0.1-0.3,0.2-0.6,0.2-1c0-0.4,0.1-0.7,0.1-1.1v-0.5h2v0.5C223.5,253.1,223.4,253.8,223.3,254.3z"/>
				<path class="st0" d="M230.8,244.7h-2.5V257h-2v-12.3h-2.5v-1.8h7V244.7z"/>
				<path class="st0" d="M233.9,242.9V257h-2v-14.1H233.9z"/>
				<path class="st0" d="M239.7,242.7c0.7,0,1.3,0.1,1.8,0.3c0.5,0.2,0.9,0.5,1.2,0.9c0.3,0.4,0.5,0.9,0.7,1.4
					c0.1,0.6,0.2,1.2,0.2,1.9v5.1c0,0.7-0.1,1.3-0.2,1.9c-0.1,0.6-0.4,1.1-0.7,1.5c-0.3,0.4-0.7,0.7-1.2,0.9
					c-0.5,0.2-1.1,0.3-1.8,0.3c-0.7,0-1.3-0.1-1.8-0.3c-0.5-0.2-0.9-0.5-1.2-0.9c-0.3-0.4-0.5-0.9-0.7-1.5c-0.1-0.6-0.2-1.2-0.2-1.9
					v-5.1c0-0.7,0.1-1.4,0.2-1.9c0.1-0.6,0.4-1,0.7-1.4c0.3-0.4,0.7-0.7,1.2-0.9C238.3,242.8,238.9,242.7,239.7,242.7z M239.7,244.4
					c-0.4,0-0.7,0.1-0.9,0.2c-0.2,0.1-0.4,0.3-0.6,0.5c-0.1,0.2-0.2,0.5-0.3,0.8c-0.1,0.3-0.1,0.6-0.1,1v6.1c0,0.4,0,0.7,0.1,1
					c0,0.3,0.1,0.6,0.3,0.8c0.1,0.2,0.3,0.4,0.6,0.5c0.2,0.1,0.6,0.2,0.9,0.2c0.4,0,0.7-0.1,0.9-0.2c0.2-0.1,0.4-0.3,0.6-0.5
					c0.1-0.2,0.2-0.5,0.3-0.8c0.1-0.3,0.1-0.7,0.1-1v-6.1c0-0.4,0-0.7-0.1-1c0-0.3-0.1-0.6-0.3-0.8c-0.1-0.2-0.3-0.4-0.6-0.5
					C240.3,244.4,240,244.4,239.7,244.4z"/>
				<path class="st0" d="M247.3,247.6v9.4h-2v-14.1h1.5l3.5,8.7v-8.7h2V257h-1.4L247.3,247.6z"/>
			</g>
			<g>
				<path class="st1" d="M153.2,258.7c-0.4,0-0.7-0.1-1-0.2c-0.3-0.1-0.6-0.2-0.8-0.4c-0.2-0.2-0.5-0.3-0.7-0.5
					c-0.2-0.2-0.4-0.4-0.6-0.6c-0.2,0.2-0.4,0.5-0.7,0.7c-0.3,0.2-0.5,0.4-0.8,0.5c-0.3,0.1-0.7,0.3-1,0.4c-0.4,0.1-0.8,0.1-1.2,0.1
					c-0.6,0-1.1-0.1-1.6-0.3c-0.5-0.2-0.8-0.5-1.2-0.8c-0.3-0.3-0.6-0.8-0.7-1.2c-0.2-0.5-0.2-1-0.2-1.6c0-0.6,0.1-1.1,0.2-1.6
					c0.1-0.5,0.3-0.9,0.6-1.3c0.2-0.4,0.5-0.8,0.8-1.1c0.3-0.3,0.6-0.6,0.9-0.9c-0.2-0.3-0.4-0.7-0.6-1.1c-0.2-0.4-0.4-0.8-0.6-1.2
					c-0.2-0.4-0.3-0.8-0.5-1.3c-0.1-0.4-0.2-0.9-0.2-1.4c0-0.6,0.1-1.1,0.3-1.6c0.2-0.5,0.4-0.9,0.7-1.2c0.3-0.3,0.7-0.6,1.2-0.8
					c0.5-0.2,1-0.3,1.5-0.3c0.5,0,1,0.1,1.4,0.2c0.5,0.1,0.8,0.4,1.2,0.6c0.3,0.3,0.6,0.6,0.8,1c0.2,0.4,0.3,0.9,0.3,1.4
					c0,0.6-0.1,1.1-0.3,1.7c-0.2,0.5-0.5,1-0.8,1.5c-0.3,0.5-0.6,0.9-1,1.3c-0.4,0.4-0.7,0.8-1,1.1l2.5,3.7c0.2-0.4,0.3-0.9,0.4-1.4
					c0.1-0.5,0.2-1.1,0.2-1.7h2.5c0,0.4-0.1,0.9-0.1,1.3c-0.1,0.4-0.2,0.9-0.4,1.3c-0.1,0.4-0.3,0.8-0.5,1.1c-0.2,0.4-0.4,0.7-0.5,1
					c0.1,0.1,0.2,0.2,0.3,0.3c0.1,0.1,0.2,0.2,0.4,0.3s0.3,0.2,0.4,0.2c0.1,0.1,0.3,0.1,0.5,0.1V258.7z M145.2,254.9
					c0,0.2,0,0.5,0.1,0.7c0,0.2,0.1,0.4,0.2,0.6c0.1,0.2,0.2,0.3,0.4,0.4c0.2,0.1,0.4,0.2,0.6,0.2c0.3,0,0.5,0,0.7-0.1
					c0.2-0.1,0.4-0.2,0.6-0.3c0.2-0.1,0.3-0.3,0.5-0.4c0.1-0.1,0.3-0.3,0.4-0.4l-1.2-1.8c-0.1-0.1-0.2-0.3-0.3-0.5
					c-0.1-0.2-0.2-0.3-0.4-0.5c-0.1-0.2-0.2-0.3-0.3-0.5c-0.1-0.2-0.2-0.3-0.2-0.5c-0.3,0.4-0.5,0.8-0.7,1.4
					C145.3,253.7,145.2,254.2,145.2,254.9z M146.7,248.7c0.2-0.2,0.4-0.5,0.6-0.9c0.2-0.3,0.3-0.7,0.5-1.1c0.1-0.4,0.3-0.8,0.3-1.2
					c0.1-0.4,0.1-0.8,0.1-1.2c0-0.4-0.1-0.7-0.3-0.9c-0.2-0.2-0.5-0.3-0.9-0.3c-0.2,0-0.4,0.1-0.6,0.2c-0.2,0.1-0.3,0.2-0.4,0.4
					c-0.1,0.2-0.2,0.4-0.2,0.6c0,0.2-0.1,0.4-0.1,0.7c0,0.3,0,0.7,0.1,1c0.1,0.3,0.1,0.7,0.2,1c0.1,0.3,0.2,0.6,0.3,0.9
					C146.5,248.2,146.6,248.4,146.7,248.7z"/>
			</g>
		</g>
	</g>
</g>
</svg>
