<?xml version="1.0" encoding="utf-8"?>
<!-- Generator: Adobe Illustrator 22.0.0, SVG Export Plug-In . SVG Version: 6.00 Build 0)  -->
<svg version="1.1" id="Layer_1" xmlns="http://www.w3.org/2000/svg" xmlns:xlink="http://www.w3.org/1999/xlink" x="0px" y="0px"
	 width="220px" height="215px" viewBox="0 0 220 215" style="enable-background:new 0 0 220 215;" xml:space="preserve">
<style type="text/css">
	.st0{fill:#333132;}
	.st1{fill:#FFFFFF;}
	.st2{fill:#00ADEE;}
</style>
<rect x="-0.2" y="0" class="st0" width="220" height="215"/>
<g>
	<g>
		<path class="st1" d="M127.7,74.6l33.4,33.5h-14.6c-0.1,0.1-0.5,0.1-0.7,0.1c-0.1,0-0.3-0.1-0.4-0.1l-28.9-28.7v28.7h-11V41.2h11.1
			V70l28.9-28.9h15.7L127.7,74.6z"/>
		<path class="st2" d="M163,91.5c-5.4,5.4-11,11-16.4,16.4c-0.3,0.1-0.4,0.2-0.7,0.3h14.8c0.1,0,1,0,1.3-0.3
			c0.4-0.1,0.6-0.4,0.8-0.5l16.1-16L163,91.5L163,91.5z"/>
		<path class="st1" d="M60.3,165.6c3.1,0,6-0.6,8.6-1.8c2.7-1.2,5.1-2.7,7.1-4.8c2-2,3.6-4.4,4.8-7.2c1.1-2.7,1.8-5.5,1.8-8.6
			c0-3-0.6-5.9-1.8-8.6c-1.1-2.7-2.7-5.1-4.8-7.2c-2-2-4.4-3.7-7.1-4.8c-2.7-1.1-5.5-1.8-8.6-1.8H49.1v44.6L60.3,165.6L60.3,165.6z
			 M38,109.8h22.3c4.6,0,8.9,0.9,12.9,2.7c4.1,1.8,7.6,4.1,10.7,7.2c3,3,5.5,6.6,7.2,10.7c1.8,4.1,2.7,8.4,2.7,12.9
			s-0.8,8.9-2.7,12.9c-1.8,4.1-4.1,7.6-7.2,10.7c-3,3-6.5,5.5-10.7,7.2c-4.1,1.8-8.4,2.7-12.9,2.7H38V109.8z"/>
		<path class="st1" d="M154,109.8c4.6,0,9,0.9,13,2.6c4.1,1.8,7.6,4.1,10.7,7.2l-7.9,7.9c-4.3-4.4-9.6-6.5-15.7-6.5
			c-6.1,0-11.4,2.2-15.8,6.5c-4.3,4.4-6.5,9.6-6.5,15.7s2.2,11.4,6.5,15.8c4.4,4.3,9.7,6.5,15.8,6.5c3.4,0,6.5-0.7,9.3-2
			c2.9-1.3,5.3-3.2,7.4-5.5v-9.2H154v-11.1h28v24c-1.5,2.2-3.3,4.3-5.3,6.2c-2,1.9-4.2,3.4-6.6,4.8c-2.4,1.3-4.9,2.3-7.6,3
			c-2.7,0.7-5.5,1.1-8.4,1.1c-9.3,0-17.1-3.3-23.6-9.8c-6.5-6.5-9.8-14.3-9.8-23.6c0-9.2,3.3-17.1,9.8-23.6
			C136.9,113.1,144.8,109.8,154,109.8z"/>
		<path class="st2" d="M122.4,165.6H91.7L86,176.8H73.5l33.4-66.9l33.4,66.9H128L122.4,165.6L122.4,165.6z M97.1,154.5h19.7
			l-9.8-19.7L97.1,154.5z"/>
		<path class="st2" d="M87.4,97H56.6l-5.7,11.2H38.6l33.4-66.9l33.5,66.9H93L87.4,97L87.4,97z M62.1,85.9h19.7l-9.8-19.7L62.1,85.9z
			"/>
	</g>
</g>
</svg>
