<?xml version="1.0" encoding="utf-8"?>
<!-- Generator: Adobe Illustrator 22.0.0, SVG Export Plug-In . SVG Version: 6.00 Build 0)  -->
<svg version="1.1" id="Layer_1" xmlns="http://www.w3.org/2000/svg" xmlns:xlink="http://www.w3.org/1999/xlink" x="0px" y="0px"
	 width="205px" height="218px" viewBox="0 0 205 218" style="enable-background:new 0 0 205 218;" xml:space="preserve">
<style type="text/css">
	.st0{fill:#231F20;}
	.st1{fill:#00ADEE;}
	.st2{fill:#404041;}
</style>
<g>
	<g>
		<path class="st0" d="M127.7,47.6l47.6,47.7h-20.8c-0.2,0.2-0.7,0.2-1,0.2c-0.2,0-0.4-0.1-0.6-0.2l-41.2-40.9v40.9H96V0h15.8v41.1
			L152.9,0h22.4L127.7,47.6z"/>
		<path class="st1" d="M178,71.7c-7.7,7.7-15.7,15.7-23.4,23.4c-0.4,0.2-0.6,0.3-1,0.4h21c0.1,0,1.4,0,1.9-0.4
			c0.6-0.2,0.9-0.6,1.1-0.7l22.9-22.8H178z"/>
		<path class="st0" d="M31.7,177.1c4.4,0,8.5-0.8,12.3-2.5c3.9-1.7,7.2-3.9,10.1-6.9c2.9-2.9,5.1-6.3,6.8-10.2
			c1.6-3.8,2.5-7.9,2.5-12.2c0-4.3-0.8-8.4-2.5-12.2c-1.6-3.9-3.9-7.3-6.9-10.2c-2.9-2.9-6.3-5.2-10.1-6.9
			c-3.8-1.6-7.9-2.5-12.2-2.5H15.8v63.5H31.7L31.7,177.1z M0,97.7h31.7c6.5,0,12.6,1.3,18.4,3.8c5.8,2.5,10.8,5.9,15.2,10.3
			c4.3,4.3,7.8,9.4,10.3,15.2c2.5,5.8,3.8,11.9,3.8,18.4c0,6.5-1.2,12.6-3.8,18.4c-2.5,5.8-5.9,10.8-10.2,15.2
			c-4.3,4.3-9.3,7.8-15.2,10.3c-5.8,2.5-12,3.8-18.4,3.8H0V97.7z"/>
		<path class="st0" d="M165.2,97.7c6.6,0,12.8,1.3,18.5,3.7c5.8,2.5,10.8,5.9,15.2,10.3L187.6,123c-6.1-6.2-13.6-9.3-22.4-9.3
			c-8.7,0-16.2,3.1-22.5,9.3c-6.1,6.2-9.2,13.7-9.2,22.4c0,8.7,3.1,16.2,9.2,22.5c6.3,6.1,13.8,9.2,22.5,9.2c4.8,0,9.2-1,13.2-2.8
			c4.1-1.9,7.6-4.5,10.6-7.9v-13.1h-23.9v-15.8H205v34.1c-2.2,3.2-4.7,6.1-7.6,8.8c-2.9,2.7-6,4.9-9.4,6.8c-3.4,1.9-7,3.3-10.8,4.3
			c-3.8,1-7.8,1.5-11.9,1.5c-13.2,0-24.4-4.7-33.6-14c-9.3-9.3-14-20.4-14-33.6c0-13.1,4.7-24.3,14-33.6
			C140.8,102.4,152.1,97.7,165.2,97.7z"/>
		<path class="st1" d="M120.1,177.1H76.4L68.3,193H50.6l47.6-95.3l47.6,95.3h-17.7L120.1,177.1L120.1,177.1z M84.2,161.3h28l-14-28
			L84.2,161.3z"/>
		<path class="st1" d="M70.3,79.4H26.5l-8.1,15.9H0.8L48.3,0L96,95.3H78.3L70.3,79.4L70.3,79.4z M34.3,63.6h28l-14-28L34.3,63.6z"/>
	</g>
	<g>
		<g>
			<path class="st2" d="M2.1,216.2h-2l3-14.1h2l3,14.1h-2l-0.8-3.5H2.8L2.1,216.2z M4.1,205.1l-1,6h2L4.1,205.1z"/>
			<path class="st2" d="M16.2,205.9c0,0.8-0.1,1.5-0.4,2.1c-0.3,0.6-0.7,1-1.3,1.2l2.3,7.1h-2l-2-6.5h-1.5v6.5h-2v-14.1h2.5
				c0.7,0,1.4,0.1,1.9,0.2c0.6,0.1,1,0.3,1.4,0.6c0.4,0.3,0.7,0.7,0.9,1.2C16.1,204.6,16.2,205.2,16.2,205.9z M14.2,205.9
				c0-0.4-0.1-0.8-0.2-1.1c-0.1-0.3-0.3-0.5-0.5-0.7c-0.2-0.2-0.5-0.3-0.8-0.4c-0.3-0.1-0.7-0.1-1.1-0.1h-0.5v4.5h0.5
				c0.4,0,0.8,0,1.1-0.1c0.3-0.1,0.6-0.2,0.8-0.4c0.2-0.2,0.4-0.4,0.5-0.7C14.2,206.6,14.2,206.3,14.2,205.9z"/>
			<path class="st2" d="M24.7,213.6c-0.1,0.6-0.3,1.1-0.6,1.5c-0.3,0.4-0.7,0.7-1.2,0.9c-0.5,0.2-1.1,0.3-1.8,0.3
				c-0.8,0-1.4-0.1-1.9-0.4c-0.5-0.3-0.9-0.6-1.2-1.1c-0.3-0.5-0.5-1-0.6-1.6c-0.1-0.6-0.2-1.3-0.2-2.1v-4c0-0.8,0.1-1.4,0.2-2.1
				c0.1-0.6,0.3-1.2,0.6-1.6c0.3-0.5,0.7-0.8,1.2-1.1c0.5-0.3,1.1-0.4,1.9-0.4c0.7,0,1.3,0.1,1.8,0.3c0.5,0.2,0.9,0.5,1.2,0.9
				c0.3,0.4,0.5,0.9,0.6,1.5c0.1,0.6,0.2,1.2,0.2,1.9h-2c0-0.4,0-0.8,0-1.2c0-0.4-0.1-0.7-0.2-1c-0.1-0.3-0.3-0.5-0.5-0.6
				c-0.2-0.2-0.6-0.2-1-0.2c-0.4,0-0.7,0.1-1,0.2c-0.2,0.2-0.4,0.4-0.6,0.6c-0.1,0.3-0.2,0.6-0.2,1c0,0.4-0.1,0.8-0.1,1.2v5
				c0,0.4,0,0.8,0.1,1.1c0.1,0.4,0.2,0.7,0.3,1c0.1,0.3,0.3,0.5,0.6,0.7c0.2,0.2,0.6,0.3,0.9,0.3c0.4,0,0.7-0.1,0.9-0.3
				c0.2-0.2,0.4-0.4,0.5-0.7c0.1-0.3,0.2-0.6,0.2-1c0-0.4,0.1-0.7,0.1-1.1v-0.5h2v0.5C24.9,212.4,24.8,213,24.7,213.6z"/>
			<path class="st2" d="M28.2,209.7v6.5h-2v-14.1h2v6h3.5v-6h2v14.1h-2v-6.5H28.2z"/>
			<path class="st2" d="M37.9,202.1v14.1h-2v-14.1H37.9z"/>
			<path class="st2" d="M46,203.9h-2.5v12.3h-2v-12.3H39v-1.8h7V203.9z"/>
			<path class="st2" d="M49,209.7v5h3.5v1.5H47v-14.1h5.5v1.5H49v4.5h2.5v1.5H49z"/>
			<path class="st2" d="M61,213.6c-0.1,0.6-0.3,1.1-0.6,1.5c-0.3,0.4-0.7,0.7-1.2,0.9c-0.5,0.2-1.1,0.3-1.8,0.3
				c-0.8,0-1.4-0.1-1.9-0.4c-0.5-0.3-0.9-0.6-1.2-1.1c-0.3-0.5-0.5-1-0.6-1.6c-0.1-0.6-0.2-1.3-0.2-2.1v-4c0-0.8,0.1-1.4,0.2-2.1
				c0.1-0.6,0.3-1.2,0.6-1.6c0.3-0.5,0.7-0.8,1.2-1.1c0.5-0.3,1.1-0.4,1.9-0.4c0.7,0,1.3,0.1,1.8,0.3c0.5,0.2,0.9,0.5,1.2,0.9
				c0.3,0.4,0.5,0.9,0.6,1.5c0.1,0.6,0.2,1.2,0.2,1.9h-2c0-0.4,0-0.8,0-1.2c0-0.4-0.1-0.7-0.2-1c-0.1-0.3-0.3-0.5-0.5-0.6
				c-0.2-0.2-0.6-0.2-1-0.2c-0.4,0-0.8,0.1-1,0.2c-0.2,0.2-0.4,0.4-0.6,0.6c-0.1,0.3-0.2,0.6-0.2,1c0,0.4-0.1,0.8-0.1,1.2v5
				c0,0.4,0,0.8,0.1,1.1c0,0.4,0.1,0.7,0.3,1c0.1,0.3,0.3,0.5,0.6,0.7c0.2,0.2,0.6,0.3,0.9,0.3c0.4,0,0.7-0.1,0.9-0.3
				c0.2-0.2,0.4-0.4,0.5-0.7c0.1-0.3,0.2-0.6,0.2-1c0-0.4,0.1-0.7,0.1-1.1v-0.5h2v0.5C61.1,212.4,61.1,213,61,213.6z"/>
			<path class="st2" d="M68.5,203.9H66v12.3h-2v-12.3h-2.5v-1.8h7.1V203.9z"/>
			<path class="st2" d="M77.2,213.3c-0.1,0.6-0.3,1.2-0.7,1.6c-0.3,0.5-0.7,0.8-1.2,1.1c-0.5,0.2-1.2,0.4-1.9,0.4
				c-0.8,0-1.4-0.1-2-0.4c-0.5-0.2-0.9-0.6-1.2-1.1c-0.3-0.5-0.5-1-0.6-1.6c-0.1-0.6-0.2-1.3-0.2-2.1v-9.1h2v9.1
				c0,0.5,0,0.9,0.1,1.3c0,0.4,0.1,0.8,0.3,1.1c0.1,0.3,0.3,0.6,0.6,0.8c0.3,0.2,0.6,0.3,1.1,0.3c0.5,0,0.8-0.1,1.1-0.3
				c0.3-0.2,0.5-0.5,0.6-0.8c0.1-0.3,0.2-0.7,0.3-1.1c0-0.4,0.1-0.9,0.1-1.3v-9.1h2v9.1C77.4,211.9,77.3,212.6,77.2,213.3z"/>
			<path class="st2" d="M86.4,205.9c0,0.8-0.1,1.5-0.4,2.1c-0.3,0.6-0.7,1-1.3,1.2l2.3,7.1h-2l-2-6.5h-1.5v6.5h-2v-14.1h2.5
				c0.7,0,1.4,0.1,1.9,0.2c0.6,0.1,1,0.3,1.4,0.6c0.4,0.3,0.7,0.7,0.9,1.2C86.3,204.6,86.4,205.2,86.4,205.9z M84.3,205.9
				c0-0.4-0.1-0.8-0.2-1.1c-0.1-0.3-0.3-0.5-0.5-0.7c-0.2-0.2-0.5-0.3-0.8-0.4c-0.3-0.1-0.7-0.1-1.1-0.1h-0.5v4.5h0.5
				c0.4,0,0.8,0,1.1-0.1c0.3-0.1,0.6-0.2,0.8-0.4c0.2-0.2,0.4-0.4,0.5-0.7C84.3,206.6,84.3,206.3,84.3,205.9z"/>
			<path class="st2" d="M90,209.7v5h3.5v1.5H88v-14.1h5.5v1.5H90v4.5h2.5v1.5H90z"/>
		</g>
		<g>
			<path class="st2" d="M114.9,213.6c-0.1,0.6-0.3,1.1-0.6,1.5c-0.3,0.4-0.7,0.7-1.2,0.9c-0.5,0.2-1.1,0.3-1.8,0.3
				c-0.8,0-1.4-0.1-1.9-0.4c-0.5-0.3-0.9-0.6-1.2-1.1c-0.3-0.5-0.5-1-0.6-1.6c-0.1-0.6-0.2-1.3-0.2-2.1v-4c0-0.8,0.1-1.4,0.2-2.1
				c0.1-0.6,0.3-1.2,0.6-1.6c0.3-0.5,0.7-0.8,1.2-1.1c0.5-0.3,1.1-0.4,1.9-0.4c0.7,0,1.3,0.1,1.8,0.3c0.5,0.2,0.9,0.5,1.2,0.9
				c0.3,0.4,0.5,0.9,0.6,1.5c0.1,0.6,0.2,1.2,0.2,1.9h-2c0-0.4,0-0.8,0-1.2c0-0.4-0.1-0.7-0.2-1c-0.1-0.3-0.3-0.5-0.5-0.6
				c-0.2-0.2-0.6-0.2-1-0.2c-0.4,0-0.8,0.1-1,0.2c-0.2,0.2-0.4,0.4-0.6,0.6c-0.1,0.3-0.2,0.6-0.2,1c0,0.4,0,0.8,0,1.2v5
				c0,0.4,0,0.8,0.1,1.1c0,0.4,0.1,0.7,0.3,1c0.1,0.3,0.3,0.5,0.6,0.7c0.2,0.2,0.6,0.3,0.9,0.3s0.7-0.1,0.9-0.3
				c0.2-0.2,0.4-0.4,0.5-0.7c0.1-0.3,0.2-0.6,0.2-1c0-0.4,0-0.7,0-1.1v-0.5h2v0.5C115.1,212.4,115,213,114.9,213.6z"/>
			<path class="st2" d="M120.1,202c0.7,0,1.3,0.1,1.8,0.3c0.5,0.2,0.9,0.5,1.2,0.9c0.3,0.4,0.5,0.9,0.7,1.4c0.1,0.6,0.2,1.2,0.2,1.9
				v5.1c0,0.7-0.1,1.3-0.2,1.9c-0.1,0.6-0.4,1.1-0.7,1.5c-0.3,0.4-0.7,0.7-1.2,0.9c-0.5,0.2-1.1,0.3-1.8,0.3c-0.7,0-1.3-0.1-1.8-0.3
				c-0.5-0.2-0.9-0.5-1.2-0.9c-0.3-0.4-0.5-0.9-0.7-1.5c-0.1-0.6-0.2-1.2-0.2-1.9v-5.1c0-0.7,0.1-1.4,0.2-1.9
				c0.1-0.6,0.4-1.1,0.7-1.4c0.3-0.4,0.7-0.7,1.2-0.9C118.7,202.1,119.3,202,120.1,202z M120.1,203.6c-0.4,0-0.7,0.1-0.9,0.2
				c-0.2,0.1-0.4,0.3-0.6,0.5c-0.1,0.2-0.2,0.5-0.3,0.8c-0.1,0.3-0.1,0.6-0.1,1v6.1c0,0.4,0,0.7,0.1,1c0.1,0.3,0.2,0.6,0.3,0.8
				c0.1,0.2,0.3,0.4,0.6,0.5c0.2,0.1,0.6,0.2,0.9,0.2c0.4,0,0.7-0.1,0.9-0.2c0.2-0.1,0.4-0.3,0.6-0.5c0.1-0.2,0.2-0.5,0.3-0.8
				c0.1-0.3,0.1-0.7,0.1-1V206c0-0.4,0-0.7-0.1-1c-0.1-0.3-0.1-0.6-0.3-0.8c-0.1-0.2-0.3-0.4-0.6-0.5
				C120.7,203.7,120.4,203.6,120.1,203.6z"/>
			<path class="st2" d="M127.7,206.8v9.4h-2v-14.1h1.5l3.5,8.7v-8.7h2v14.1h-1.4L127.7,206.8z"/>
			<path class="st2" d="M139.8,205.2c-0.1-0.3-0.2-0.6-0.4-0.8c-0.2-0.2-0.4-0.4-0.6-0.6c-0.2-0.1-0.5-0.2-0.9-0.2
				c-0.5,0-0.9,0.1-1.1,0.4c-0.3,0.3-0.4,0.6-0.4,1.1c0,0.2,0,0.4,0.1,0.6c0.1,0.2,0.1,0.4,0.2,0.5c0.1,0.2,0.2,0.3,0.3,0.5
				c0.1,0.1,0.3,0.3,0.4,0.4l2.5,2c0.3,0.2,0.5,0.4,0.7,0.7c0.2,0.3,0.5,0.6,0.6,0.9c0.2,0.3,0.3,0.7,0.5,1.1
				c0.1,0.4,0.2,0.8,0.2,1.3c0,0.5-0.1,1-0.2,1.4c-0.2,0.4-0.4,0.8-0.7,1c-0.3,0.3-0.7,0.5-1.1,0.6c-0.4,0.1-0.9,0.2-1.4,0.2
				c-0.7,0-1.2-0.1-1.7-0.3c-0.5-0.2-0.9-0.5-1.2-0.9c-0.3-0.4-0.6-0.8-0.8-1.3c-0.2-0.5-0.3-1.1-0.3-1.7l2-0.5
				c0,0.4,0.1,0.7,0.1,1.1c0.1,0.4,0.2,0.7,0.3,1c0.1,0.3,0.3,0.5,0.6,0.7c0.3,0.2,0.6,0.3,0.9,0.3c1,0,1.5-0.5,1.5-1.5
				c0-0.3,0-0.6-0.1-0.8c-0.1-0.2-0.2-0.5-0.3-0.7c-0.1-0.2-0.3-0.4-0.5-0.5c-0.2-0.2-0.4-0.3-0.5-0.5l-2.5-2
				c-0.2-0.2-0.4-0.4-0.6-0.6c-0.2-0.2-0.3-0.5-0.5-0.7c-0.1-0.3-0.2-0.6-0.3-0.9c-0.1-0.3-0.1-0.7-0.1-1c0-0.5,0.1-1,0.3-1.4
				c0.2-0.4,0.4-0.8,0.7-1.1c0.3-0.3,0.7-0.5,1.1-0.7c0.4-0.2,0.9-0.2,1.4-0.2c0.6,0,1.2,0.1,1.7,0.3c0.5,0.2,0.9,0.4,1.2,0.7
				c0.3,0.3,0.6,0.7,0.8,1.2c0.2,0.5,0.3,1,0.4,1.5l-2,0.5C139.9,205.8,139.9,205.5,139.8,205.2z"/>
			<path class="st2" d="M149.4,203.9h-2.5v12.3h-2v-12.3h-2.5v-1.8h7V203.9z"/>
			<path class="st2" d="M157.5,205.9c0,0.8-0.1,1.5-0.4,2.1c-0.3,0.6-0.7,1-1.3,1.2l2.3,7.1h-2l-2-6.5h-1.5v6.5h-2v-14.1h2.5
				c0.7,0,1.4,0.1,1.9,0.2c0.6,0.1,1,0.3,1.4,0.6c0.4,0.3,0.7,0.7,0.9,1.2C157.4,204.6,157.5,205.2,157.5,205.9z M155.4,205.9
				c0-0.4-0.1-0.8-0.2-1.1c-0.1-0.3-0.3-0.5-0.5-0.7c-0.2-0.2-0.5-0.3-0.8-0.4c-0.3-0.1-0.7-0.1-1.1-0.1h-0.5v4.5h0.5
				c0.4,0,0.8,0,1.1-0.1c0.3-0.1,0.6-0.2,0.8-0.4c0.2-0.2,0.4-0.4,0.5-0.7C155.4,206.6,155.4,206.3,155.4,205.9z"/>
			<path class="st2" d="M166.6,213.3c-0.1,0.6-0.3,1.2-0.7,1.6c-0.3,0.5-0.7,0.8-1.2,1.1c-0.5,0.2-1.2,0.4-2,0.4
				c-0.8,0-1.4-0.1-1.9-0.4c-0.5-0.2-0.9-0.6-1.2-1.1c-0.3-0.5-0.5-1-0.7-1.6c-0.1-0.6-0.2-1.3-0.2-2.1v-9.1h2v9.1
				c0,0.5,0,0.9,0.1,1.3c0,0.4,0.1,0.8,0.3,1.1c0.1,0.3,0.3,0.6,0.6,0.8c0.3,0.2,0.6,0.3,1.1,0.3c0.5,0,0.8-0.1,1.1-0.3
				c0.3-0.2,0.5-0.5,0.6-0.8c0.1-0.3,0.2-0.7,0.2-1.1c0-0.4,0.1-0.9,0.1-1.3v-9.1h2v9.1C166.8,211.9,166.8,212.6,166.6,213.3z"/>
			<path class="st2" d="M175.9,213.6c-0.1,0.6-0.3,1.1-0.6,1.5c-0.3,0.4-0.7,0.7-1.2,0.9c-0.5,0.2-1.1,0.3-1.8,0.3
				c-0.8,0-1.4-0.1-1.9-0.4c-0.5-0.3-0.9-0.6-1.2-1.1c-0.3-0.5-0.5-1-0.6-1.6c-0.1-0.6-0.2-1.3-0.2-2.1v-4c0-0.8,0.1-1.4,0.2-2.1
				c0.1-0.6,0.3-1.2,0.6-1.6c0.3-0.5,0.7-0.8,1.2-1.1c0.5-0.3,1.1-0.4,1.9-0.4c0.7,0,1.3,0.1,1.8,0.3c0.5,0.2,0.9,0.5,1.2,0.9
				c0.3,0.4,0.5,0.9,0.6,1.5c0.1,0.6,0.2,1.2,0.2,1.9h-2c0-0.4,0-0.8,0-1.2c0-0.4-0.1-0.7-0.2-1c-0.1-0.3-0.3-0.5-0.5-0.6
				c-0.2-0.2-0.6-0.2-1-0.2c-0.4,0-0.8,0.1-1,0.2c-0.2,0.2-0.4,0.4-0.6,0.6c-0.1,0.3-0.2,0.6-0.2,1c0,0.4-0.1,0.8-0.1,1.2v5
				c0,0.4,0,0.8,0.1,1.1c0,0.4,0.1,0.7,0.3,1c0.1,0.3,0.3,0.5,0.6,0.7c0.2,0.2,0.5,0.3,0.9,0.3c0.4,0,0.7-0.1,0.9-0.3
				c0.2-0.2,0.4-0.4,0.5-0.7c0.1-0.3,0.2-0.6,0.2-1s0.1-0.7,0.1-1.1v-0.5h2v0.5C176.1,212.4,176,213,175.9,213.6z"/>
			<path class="st2" d="M183.4,203.9h-2.5v12.3h-2v-12.3h-2.5v-1.8h7V203.9z"/>
			<path class="st2" d="M186.5,202.1v14.1h-2v-14.1H186.5z"/>
			<path class="st2" d="M192.3,202c0.7,0,1.3,0.1,1.8,0.3c0.5,0.2,0.9,0.5,1.2,0.9c0.3,0.4,0.5,0.9,0.7,1.4c0.1,0.6,0.2,1.2,0.2,1.9
				v5.1c0,0.7-0.1,1.3-0.2,1.9c-0.1,0.6-0.4,1.1-0.7,1.5c-0.3,0.4-0.7,0.7-1.2,0.9c-0.5,0.2-1.1,0.3-1.8,0.3c-0.7,0-1.3-0.1-1.8-0.3
				c-0.5-0.2-0.9-0.5-1.2-0.9c-0.3-0.4-0.5-0.9-0.7-1.5c-0.1-0.6-0.2-1.2-0.2-1.9v-5.1c0-0.7,0.1-1.4,0.2-1.9
				c0.1-0.6,0.4-1.1,0.7-1.4c0.3-0.4,0.7-0.7,1.2-0.9C191,202.1,191.6,202,192.3,202z M192.3,203.6c-0.4,0-0.7,0.1-0.9,0.2
				c-0.2,0.1-0.4,0.3-0.6,0.5c-0.1,0.2-0.2,0.5-0.3,0.8c-0.1,0.3-0.1,0.6-0.1,1v6.1c0,0.4,0,0.7,0.1,1c0,0.3,0.1,0.6,0.3,0.8
				c0.1,0.2,0.3,0.4,0.6,0.5c0.2,0.1,0.6,0.2,0.9,0.2c0.4,0,0.7-0.1,0.9-0.2c0.2-0.1,0.4-0.3,0.6-0.5c0.1-0.2,0.2-0.5,0.3-0.8
				c0.1-0.3,0.1-0.7,0.1-1V206c0-0.4,0-0.7-0.1-1c0-0.3-0.1-0.6-0.3-0.8c-0.1-0.2-0.3-0.4-0.6-0.5
				C193,203.7,192.7,203.6,192.3,203.6z"/>
			<path class="st2" d="M200,206.8v9.4h-2v-14.1h1.5l3.5,8.7v-8.7h2v14.1h-1.4L200,206.8z"/>
		</g>
		<g>
			<path class="st1" d="M105.7,218c-0.4,0-0.7-0.1-1-0.2c-0.3-0.1-0.6-0.2-0.8-0.4c-0.2-0.2-0.5-0.3-0.7-0.5
				c-0.2-0.2-0.4-0.4-0.6-0.6c-0.2,0.2-0.4,0.5-0.7,0.7c-0.3,0.2-0.5,0.4-0.8,0.5c-0.3,0.2-0.7,0.3-1,0.4c-0.4,0.1-0.8,0.1-1.2,0.1
				c-0.6,0-1.1-0.1-1.6-0.3c-0.5-0.2-0.9-0.5-1.2-0.8c-0.3-0.3-0.6-0.8-0.7-1.2c-0.2-0.5-0.2-1-0.2-1.6c0-0.6,0.1-1.1,0.2-1.6
				c0.1-0.5,0.3-0.9,0.6-1.3c0.2-0.4,0.5-0.8,0.8-1.1c0.3-0.3,0.6-0.6,0.9-0.9c-0.2-0.3-0.4-0.7-0.6-1.1c-0.2-0.4-0.4-0.8-0.6-1.2
				c-0.2-0.4-0.3-0.8-0.5-1.3c-0.1-0.4-0.2-0.9-0.2-1.4c0-0.6,0.1-1.1,0.3-1.6c0.2-0.5,0.4-0.9,0.7-1.2c0.3-0.3,0.7-0.6,1.2-0.8
				c0.5-0.2,1-0.3,1.5-0.3c0.5,0,1,0.1,1.4,0.2c0.5,0.1,0.8,0.4,1.2,0.6c0.3,0.3,0.6,0.6,0.8,1c0.2,0.4,0.3,0.9,0.3,1.4
				c0,0.6-0.1,1.2-0.3,1.7c-0.2,0.5-0.5,1-0.8,1.5c-0.3,0.5-0.6,0.9-1,1.3c-0.4,0.4-0.7,0.8-1,1.1l2.5,3.7c0.2-0.4,0.3-0.9,0.4-1.4
				c0.1-0.5,0.2-1.1,0.2-1.7h2.5c0,0.4-0.1,0.9-0.1,1.3c-0.1,0.4-0.2,0.9-0.4,1.3c-0.1,0.4-0.3,0.8-0.5,1.1c-0.2,0.4-0.4,0.7-0.5,1
				c0.1,0.1,0.2,0.2,0.3,0.3c0.1,0.1,0.2,0.2,0.4,0.3c0.1,0.1,0.3,0.2,0.4,0.2c0.1,0.1,0.3,0.1,0.5,0.1V218z M97.7,214.1
				c0,0.2,0,0.5,0.1,0.7c0,0.2,0.1,0.4,0.2,0.6c0.1,0.2,0.2,0.3,0.4,0.4c0.2,0.1,0.4,0.2,0.6,0.2c0.3,0,0.5,0,0.7-0.1
				c0.2-0.1,0.4-0.2,0.6-0.3c0.2-0.1,0.3-0.3,0.5-0.4c0.1-0.1,0.3-0.3,0.4-0.4l-1.2-1.8c-0.1-0.1-0.2-0.3-0.3-0.5
				c-0.1-0.2-0.2-0.3-0.4-0.5c-0.1-0.2-0.2-0.3-0.3-0.5c-0.1-0.2-0.2-0.3-0.2-0.5c-0.3,0.4-0.5,0.8-0.7,1.4
				C97.8,212.9,97.7,213.5,97.7,214.1z M99.2,207.9c0.2-0.2,0.4-0.5,0.6-0.9c0.2-0.3,0.3-0.7,0.5-1.1c0.1-0.4,0.3-0.8,0.3-1.2
				c0.1-0.4,0.1-0.8,0.1-1.2c0-0.4-0.1-0.7-0.3-0.9c-0.2-0.2-0.5-0.3-0.9-0.3c-0.2,0-0.4,0.1-0.6,0.2c-0.2,0.1-0.3,0.2-0.4,0.4
				c-0.1,0.2-0.2,0.4-0.2,0.6c0,0.2-0.1,0.4-0.1,0.7c0,0.3,0,0.7,0.1,1c0.1,0.3,0.1,0.7,0.2,1c0.1,0.3,0.2,0.6,0.3,0.9
				C99,207.4,99.1,207.7,99.2,207.9z"/>
		</g>
	</g>
</g>
</svg>
